<svg xmlns="http://www.w3.org/2000/svg" viewBox="0 0 64 64" role="img" aria-label="Spanglish">
  <title>Spanglish</title>
  <defs>
    <clipPath id="fav">
      <path d="M32 4a26 26 0 1 1-14.6 47.5L9 60l4.6-11.4A26 26 0 0 1 32 4Z"/>
    </clipPath>
  </defs>
  <g clip-path="url(#fav)">
    <rect width="64" height="64" fill="#10275a"/>
    <path d="M2 0 62 60M62 0 2 60" stroke="#ffffff" stroke-width="11"/>
    <path d="M2 0 62 60M62 0 2 60" stroke="#d8232a" stroke-width="5"/>
    <path d="M32 0v64M0 30h64" stroke="#ffffff" stroke-width="13"/>
    <path d="M32 0v64M0 30h64" stroke="#d8232a" stroke-width="7"/>
    <g transform="rotate(-32 32 32)">
      <rect x="-14" y="40" width="96" height="4" fill="#ffffff"/>
      <rect x="-14" y="44" width="96" height="7" fill="#d8232a"/>
      <rect x="-14" y="51" width="96" height="6" fill="#f6c325"/>
      <rect x="-14" y="57" width="96" height="7" fill="#d8232a"/>
    </g>
  </g>
</svg>
